<?xml version="1.0" encoding="utf-8"?>
<svg xmlns="http://www.w3.org/2000/svg" width="500" zoomAndPan="magnify" viewBox="0 0 375 374.999991" height="500" preserveAspectRatio="none" version="1.2" xmlns:bx="https://boxy-svg.com"><defs><bx:export><bx:file format="svg"/></bx:export></defs><g id="fe61add22c"><path style=" stroke:none;fill-rule:nonzero;fill:#004aad;fill-opacity:1;" d="M 218.75 0 L 218.75 133.667969 C 209.53125 128.296875 198.941406 125 187.5 125 C 152.976562 125 125 152.972656 125 187.5 C 125 222.027344 152.980469 250 187.5 250 C 222.027344 250 250 222.027344 250 187.5 L 250 93.75 L 343.75 93.75 L 375 0 Z M 187.5 218.75 C 170.242188 218.75 156.25 204.773438 156.25 187.5 C 156.25 170.242188 170.242188 156.25 187.5 156.25 C 204.773438 156.25 218.75 170.242188 218.75 187.5 C 218.75 204.773438 204.773438 218.75 187.5 218.75 Z M 321.226562 62.5 L 250 62.5 L 250 31.246094 L 331.648438 31.246094 Z M 321.226562 62.5 "/><path style=" stroke:none;fill-rule:nonzero;fill:#004aad;fill-opacity:1;" d="M 330.414062 125 C 338.835938 144.167969 343.75 165.210938 343.75 187.5 C 343.75 273.800781 273.800781 343.75 187.5 343.75 C 101.203125 343.75 31.25 273.800781 31.25 187.5 C 31.25 101.195312 101.207031 31.25 187.5 31.25 L 187.5 0 C 83.949219 0 0 83.9375 0 187.5 C 0 291.0625 83.949219 375 187.5 375 C 291.0625 375 375 291.0625 375 187.5 C 375 165.523438 371.03125 144.542969 364.074219 125 Z M 330.414062 125 "/><path style=" stroke:none;fill-rule:nonzero;fill:#004aad;fill-opacity:1;" d="M 187.5 281.25 C 135.722656 281.25 93.75 239.289062 93.75 187.5 C 93.75 135.710938 135.722656 93.75 187.5 93.75 L 187.5 62.5 C 118.460938 62.5 62.5 118.453125 62.5 187.5 C 62.5 256.542969 118.457031 312.5 187.5 312.5 C 256.542969 312.5 312.5 256.542969 312.5 187.5 L 281.25 187.5 C 281.25 239.289062 239.289062 281.25 187.5 281.25 Z M 187.5 281.25 "/></g></svg>